# Blender 4.3.2
# www.blender.org
mtllib spinner.mtl
o Spinners
v 0.263527 0.190588 -0.218822
v 0.363525 -0.229412 -0.298824
v -0.196472 -0.229412 -0.478821
v -0.156475 0.190588 -0.358822
v -0.196472 -0.229412 0.471176
v -0.156475 0.190588 0.361179
v 0.263527 0.190588 0.221176
v 0.363525 -0.229412 0.291176
v 1.333527 -0.229412 0.001179
v 1.333527 0.190588 0.001179
v 0.263527 0.190588 0.001179
v -1.416473 0.190588 0.001179
v -0.416473 0.190588 0.001179
v 0.363525 -0.229412 0.001179
v -0.546474 -0.229412 0.001179
v -1.416473 -0.229412 0.001179
v -0.046474 0.310588 0.001179
vn 0.6351 0.6241 -0.4552
vn 0.7725 0.2879 -0.5660
vn -0.2957 0.2934 -0.9091
vn -0.2397 0.6243 -0.7435
vn -0.7825 0.6226 0.0022
vn -0.9572 0.2894 0.0026
vn -0.2967 0.2767 0.9140
vn -0.2374 0.6171 0.7502
vn 0.6353 0.6189 0.4619
vn 0.7788 0.2755 0.5635
vn -0.9572 0.2894 0.0028
vn -0.0000 -0.0000 1.0000
vn -0.0000 -0.0000 -1.0000
vn -0.0055 1.0000 -0.0000
vt 0.933594 0.433594
vt 0.906250 0.433594
vt 0.906250 0.406250
vt 0.933594 0.406250
vt 0.996094 0.496094
vt 0.875000 0.496094
vt 0.875000 0.250000
vt 0.996094 0.250000
s 1
usemtl 2.002
f 1/1/1 2/2/2 3/3/3 4/4/4
f 13/1/5 15/2/6 5/3/7 6/4/8
f 7/1/9 8/2/10 2/3/2 1/4/1
f 4/1/4 3/2/3 15/3/11 13/4/5
f 6/1/8 5/2/7 8/3/10 7/4/9
f 9/5/12 10/6/12 11/7/12 14/8/12
f 16/5/13 12/6/13 13/7/13 15/8/13
f 17/4/14 1/2/1 4/3/4
f 17/4/14 4/2/4 13/3/5
f 17/4/14 13/2/5 6/3/8
f 17/4/14 7/2/9 1/3/1
f 17/4/14 6/2/8 7/3/9
