# Blender 4.3.2
# www.blender.org
mtllib door.mtl
o Door
v -2.162844 2.509160 -0.000000
v -1.522847 3.389161 -0.000000
v -2.432843 1.259160 -0.000000
v -2.432843 -0.000840 -0.000000
v -0.002824 -0.000840 -0.000000
v -0.002824 1.259160 0.000000
v -0.002824 2.509160 0.000000
v -0.002824 3.389161 0.000000
v -0.002824 -0.000840 -0.000000
v 2.427166 -0.000840 -0.000000
v 2.427166 1.259160 0.000000
v -0.002824 1.259160 0.000000
v 1.517170 3.389161 0.000000
v 2.157167 2.509160 0.000000
v -0.002824 2.509160 0.000000
v -0.002824 3.389161 0.000000
vn -0.0000 -0.0000 1.0000
vn 0.0006 -0.0009 1.0000
vt 0.496094 0.371094
vt 0.250000 0.371094
vt 0.250000 0.250000
vt 0.496094 0.250000
vt 0.496094 0.496094
vt 0.250000 0.496094
vt 0.250000 0.375000
vt 0.496094 0.375000
s 1
usemtl 6.001
f 6/1/1 3/2/1 4/3/1 5/4/1
f 7/5/1 1/6/2 3/7/1 6/8/1
f 7/1/1 8/4/1 2/3/1 1/2/2
f 9/4/1 10/3/1 11/2/1 12/1/1
f 12/8/1 11/7/1 14/6/1 15/5/1
f 14/2/1 13/3/1 16/4/1 15/1/1
